<?xml version="1.0" encoding="utf-8"?>
<!-- Generator: Adobe Illustrator 24.2.1, SVG Export Plug-In . SVG Version: 6.00 Build 0)  -->
<svg version="1.1" id="Layer_1" xmlns="http://www.w3.org/2000/svg" xmlns:xlink="http://www.w3.org/1999/xlink" x="0px" y="0px"
	 viewBox="0 0 595.3 235" style="enable-background:new 0 0 595.3 235;" xml:space="preserve">
<style type="text/css">
	.st0{fill:#4C5357;}
	.st1{fill:#5FBFC8;}
	.st2{fill:#4D1C44;}
	.st3{fill:#D41F58;}
	.st4{fill:#317DAF;}
	.st5{fill:#1D5734;}
	.st6{fill:#77B54C;}
	.st7{fill:#6A7023;}
	.st8{fill:#ED9C3A;}
	.st9{fill:#34873D;}
	.st10{fill:#324C2A;}
	.st11{fill:#5E1819;}
	.st12{fill:#29193D;}
	.st13{fill:#C61618;}
</style>
<g>
	<path class="st0" d="M244.6,169.7c0.2,5.1,0.8,14.3,0.9,16.5c0.1,2,0.5,5.8,0.9,9.6c0.4,3.9,1.3,7.5,1.4,8.2
		c0.1,1.9-1.1,2.8-2.3,2.8c-1.8,0.1-3.7-0.8-3.8-2.3l-0.8-11.8c-0.3-4.9-1.3-20.6-1.5-25.9c-0.2-5.9-0.1-8-0.2-11.9
		c-2.3,3.9-4.6,7.8-6.3,11c-2.1,4.1-3.4,6.5-4.7,8.9c-1.3,2.4-2.5,4.6-3,7.9c-0.3,1.7-1.8,2.5-3.4,2.6c-2.4,0.2-3.9-0.7-4.6-2.6
		c-1.1-2.8-3.6-6.3-5.8-9.2c-3-3.9-5.4-7.5-6.8-9.6c-1-1.6-2.1-3.1-3.4-5.3c0.4,4.4,0.6,7.6,0.9,11l1,15.2c0.2,2.6,0.5,5.2,0.7,7.9
		c0.3,2.6,0.5,5.1,0.6,7.6c0.2,3.3,0.8,4.7,1,6.6c0.1,1.3-0.8,2.5-2.8,2.7c-2.1,0.1-3.4-0.7-3.5-2.6l-0.7-10.1
		c-0.3-6.1-0.6-12.2-1-18.2l-1.5-21.7c-0.2-2.5-0.3-3.9-0.3-5.5c0-1.9,1.3-2.3,2.7-2.4c1.5-0.1,2.3,0.1,3.1,1.1
		c5.9,8.5,12.6,18.1,19.7,27.2c1.1-2.2,2.5-5.1,4.8-9.4c2.8-5.3,4.8-8.8,7.1-12.6c1.6-2.7,2.7-4.6,3.2-5.9c0.5-1,0.8-1.7,1.7-2.3
		c0.6-0.4,1.8-1,3.2-1c1.6-0.1,2.9,0.5,3,2.2c0.1,0.8-0.2,1.7-0.2,3.7C244.2,156.5,244.3,162.2,244.6,169.7z"/>
	<path class="st0" d="M287,168.2c0.2,3.5,0.1,9.2,0,12c-0.1,3.7,0.1,7.4,0.3,11.1l1.3,19c0.7,10-1.5,18.7-12.1,19.4
		c-2.6,0.2-6.5-0.5-10.2-2.6c-2-1.2-5.8-4.9-6-7.4c-0.1-2.2,1.7-2.9,2.6-3c1.6-0.1,2.3,0.5,2.9,1.9c1.9,4.5,6.4,6.2,10.6,5.9
		c6.3-0.4,7-6.9,6.9-14c-0.2-4.4-0.3-7.1-0.6-11.6l-0.6-11.1c-1.8,4.8-3,6.8-4.2,8.8c-3,5.1-5.9,9-9.8,9.3
		c-5.8,0.4-9.5-5.1-9.9-11.5c-0.3-4.9-0.7-8.8-1.2-12.7c-0.5-4.4-0.6-6.1-0.8-8.4l-0.3-4.8c-0.1-2.2,0.9-2.8,3.1-2.9
		c2.1-0.1,2.5,1.4,2.6,2.5l1.4,20.6c0.6,8.9,1.4,12,3.7,11.8c5.2-0.4,12.3-15.3,14.7-24.8c-0.1-2.3-0.2-3.9-0.2-4.4l0-4.1
		c0-1.7,1-2.7,2.9-2.8C286.2,164,286.8,165.5,287,168.2z"/>
	<path class="st0" d="M342.1,180.3c0.2,3.1-0.4,6.1-1.9,9c-4.4,9.1-14.8,13.7-25,14.4c-7.4,0.5-13.5,0.1-13.8-3.7c0-0.5,0-1,0.2-1.5
		l-0.9,0.1c-2.2,0.1-2.8-1.4-2.9-3c-0.1-1,0.1-3.1,0.1-4.1c0.1-2.6,0-5.1-0.1-7.6c0-1.9-0.4-6.8-0.6-11.3c-1-0.3-1.4-1.2-1.5-2.9
		c-0.1-0.8,0.2-1.7,1.3-2.5l-0.2-3.1c-0.4-5.7-0.3-11.6,0.3-17.2c0.2-1.9,0.8-2.7,2.2-2.8c0.8-0.1,2,0.4,2.8,0.3
		c0.4,0,2.5-0.9,3.3-1.3c3.1-1.2,5.7-1.7,9-2.3c2.3-0.4,4.6-0.3,7-0.1c2.6,0.2,7.6,2,9.4,4.4c0.7,0.8,0.8,1.7,0.9,3
		c0,5.4-6.2,10.3-12.7,13.9c-0.6,0.4-2.4,1.2-4.7,2.3l1.1-0.1C329.1,163.4,341.3,168.1,342.1,180.3z M302.4,161.2
		c0,0.3,0.1,1.8,0.2,3.8c4.8-1.8,7.8-3.2,13.3-6.4c4.4-2.6,10.5-7.1,10.3-10.2c-0.2-3-6.4-3.2-9.8-2.9c-4.1,0.3-8.3,1.5-12.6,3.8
		c-0.9,0.5-1.5,1.3-1.5,2.4C302.1,154.7,302.1,158.1,302.4,161.2z M336.6,180.5c-0.1-1.1-0.3-2.4-0.8-3.5c-1.4-3.5-4.8-5.9-11.4-7.3
		c-5.2-1.1-13.3-1.2-17.9-0.4c-1.6,0.3-2.8,0.7-3.7,1.2c0.3,5.9,0.6,12.7,0.7,14.6l0.6,9.5c0.1,0.8,0,1.6-0.1,2.1l0.1,0
		c3.3-0.2,2.3,2.5,8,2.1c7.3-0.5,13.1-1.8,18.7-5.8C334.9,190.1,336.9,185.5,336.6,180.5z"/>
	<path class="st0" d="M345.9,145.8c-0.1-1.8,1-3.4,4-3.6c1.6-0.1,5.4,0.8,5.6,3.9c0.2,2.6-1.4,5.2-2.9,5.3
		C348.9,151.6,346.1,148.7,345.9,145.8z M351.5,196.5l-0.7-10.3c-0.3-5-1-10.3-1.3-14.4c-0.2-3.4-0.5-6.6-0.5-9.9
		c0-1.7,1.4-2.5,2.8-2.6c1.8-0.1,2.8,0.4,3,2.7c0.2,3.6,0.3,7,0.5,10.6c0.3,4.8,1,10.9,1.7,16.7c0.2,2.1,1,4.5,1.2,7.3
		c0.1,1.2-0.8,2.7-2.5,2.9C353.1,199.7,351.7,198.6,351.5,196.5z"/>
	<path class="st0" d="M369.5,197.5c-0.8-1.2-0.6-4-0.7-5.9c-0.2-2.7-0.4-7.6-0.7-11c-0.3-4.8-2.5-21.8-2.9-27.3l-1.3-17.1
		c-0.2-2.8,0.4-4.9,2.6-5c1.2-0.1,3,0.1,3.3,1.5c0.3,1.5,0.3,7,0.3,9.5c0.3,6.7,0.6,12.5,1.3,18.9c0.4,4.7,1,9.6,1.5,14.5
		c0.5,4.8,1.7,13.6,1.8,15.4c0.2,3.6,0.3,4.8,0,5.8c-0.4,1.2-1,1.7-2.3,1.8C370.4,198.6,370.1,198.4,369.5,197.5z"/>
	<path class="st0" d="M386.6,196.3c-0.8-1.2-0.6-4-0.7-5.9c-0.2-2.7-0.4-7.6-0.7-11c-0.3-4.8-2.5-21.8-2.9-27.3l-1.3-17.1
		c-0.2-2.8,0.4-4.9,2.6-5c1.2-0.1,3,0.1,3.3,1.5c0.3,1.5,0.3,7,0.3,9.5c0.3,6.7,0.6,12.5,1.3,18.9c0.4,4.7,1,9.6,1.5,14.5
		c0.5,4.8,1.7,13.6,1.8,15.4c0.2,3.6,0.3,4.8,0,5.8c-0.4,1.2-1,1.7-2.3,1.8C387.5,197.5,387.1,197.2,386.6,196.3z"/>
	<path class="st0" d="M399.2,192.8c-1.3-0.7-2.1-2.1-2.2-3.7c-0.1-1.9,1.1-3.5,2.8-3.6c1.3-0.1,2,0.6,3.1,2.4
		c2,3.3,5.8,4.3,11.6,3.9c5.5-0.4,11.4-4.5,11.1-8.3c-0.1-1.2-0.9-1.9-2-2c-1.2-0.1-3.7,0-7,0.3c-5.5,0.4-11.3,0.2-13.7-1.1
		c-2.2-1.2-2.9-2.7-3-4.8c-0.4-6.2,3.7-14.4,9.1-18.7c1.8-1.4,4-2.2,6.2-2.4c2.9-0.2,6.5,1.8,8.2,4.6c0.8,1.3,1.3,3,1.5,4.7
		c0.2,3.2-0.9,7.4-3.3,7.6c-1.3,0.1-3.8-0.8-3.9-2.3c-0.1-0.8,0.6-1.5,1.1-2.1c0.8-1.3,1.3-2.8,1.2-4.2c-0.1-2.2-1.3-3.9-3.7-3.8
		c-1.4,0.1-3.6,0.9-5.9,3.5c-2.7,3.1-5.1,7.6-4.8,11.9c0.1,1.4,0.6,2,3.7,2.1c5,0.2,12.6-0.9,16.7,0.1c3.8,0.9,4.8,4.5,4.9,6.5
		c0.5,7.1-7.4,12.5-15.8,13.1C408.7,196.7,403.8,195.4,399.2,192.8z"/>
	<path class="st0" d="M440.3,188.6c-0.1-1.2,0.3-3.1,1.2-4.1c1-1.1,2-1.8,3.7-1.9c1-0.1,1.8,0.3,1.8,1.2c0,0.4,0.3,0.7,0.7,0.8
		c4,0.5,4.6,1.1,4.8,3.2c0.2,2.3-3.2,5.2-5.9,5.3C443.2,193.1,440.6,191.8,440.3,188.6z"/>
	<path class="st0" d="M466.7,190.4c-2.6-1.8-4.7-5.4-5-9.1c-0.8-11.1,6.8-30.1,16.9-30.8c6-0.4,9.3,3.5,9.7,9.1
		c0.3,4.4-1.3,8.1-4.4,8.3c-2,0.1-3.2-0.9-3.3-2.4c0-0.6,0.1-1,0.7-1.8c1.5-1.9,2-4.5,1.8-6.6c-0.1-1.9-1-2.3-2.7-2.2
		c-8,0.6-13.5,18.7-12.9,27.9c0.2,2.8,1.3,5,5.3,4.7c4.9-0.3,13.5-5.8,15-9.1c0.5-0.9,1.1-1.8,2.4-1.9s3,1,3.1,2.8
		c0.1,1.3-0.6,2.4-2.3,4.1c-5.2,5.1-11.8,8.7-17.6,9.1C471.1,192.5,468.8,191.8,466.7,190.4z"/>
	<path class="st0" d="M528.2,165.2c0.8,11.8-7,23.4-17.4,24.1c-3.1,0.2-5.6-0.6-7.5-1.8c-3.6-2.2-5.1-4.8-5.4-9.8
		c-0.8-11.3,6.5-28.8,14.5-29.3c0.9-0.1,2.1,0.1,2.6,0.2c1.4,0.4,1.7,0.4,3.5,0.3c1.2-0.1,2.7,0.7,2.9,2.7c0,0.5,0,0.9-0.2,1.3
		c2.5,2.1,4.8,5.3,5.3,6.2C527.5,161,528,161.9,528.2,165.2z M522.7,165.2c-0.6-9-6.6-7.9-7.5-11.5l-0.4,0
		c-6.7,0.5-12.1,15.6-11.5,23.4c0.4,5.4,2.4,7.9,6.1,7.6c3.8-0.3,7.1-3,9.6-6.1C521.6,175.2,523.1,170.2,522.7,165.2z"/>
	<path class="st0" d="M587.9,178.8c0.2,0.9,0.4,1.5,0.4,1.9c0.1,2-0.5,3.3-1.7,3.4c-3.7,0.3-4.4-0.9-4.6-3.6c-0.1-1.9-0.1-6-0.1-8.6
		c0.1-2.2-0.5-11.2-0.8-15.9c-0.3-4.9-0.4-6-2.1-5.9c-6.7,0.5-12.8,11.3-12.4,19.1c0.1,3.3,0.4,7.4,0.5,8.6l0.2,2.9
		c0.2,2.8-0.1,4.1-3.2,4.4c-1.8,0.1-2.4-0.9-2.5-2.4c-0.2-2.3-0.3-7.8-0.4-10.2c0-2.1-0.4-6.8-0.8-12.6c-0.4-6.3-0.8-10.3-3.7-10.1
		c-4.8,0.3-12.8,16.2-12.1,25.1c0.2,2.8,0.3,4.5,0.8,6.7c0.2,0.7,0.2,1.3,0.2,2.1c0.2,2.3-0.6,3.1-2.8,3.3c-2.4,0.2-3.3-1.1-3.5-3.1
		c-0.3-2.9-0.7-7.3-0.9-10.8c-0.2-3.6-1.4-13.6-1.9-16.1c-0.6-3.1-1.2-6.1-1.4-8.7c-0.1-1.9,0.5-2,1.8-2.1c1.5-0.1,3.7,1,4,2.9
		l0.9,7c0.2,0.8,0.3,2.5,0.5,4.5c2.9-7.5,8.4-15.3,14.6-15.7c6.4-0.4,7.9,4.8,8.4,11.4c3.8-6.1,8.5-10.9,13.7-11.3
		c6.3-0.4,7.4,6.2,7.8,12.2c0.3,4.4,0.7,8.8,0.6,13.3c0,1.2,0,3,0.1,4.7C587.6,176.3,587.7,177.8,587.9,178.8z"/>
</g>
<g>
	<g id="_x23_5fbec7ff_1_">
		<path class="st1" d="M28,7c4.1-1.8,8.4-2.7,12.9-2.9c2.3,0,4.5-0.1,6.8,0c-2.9,0.8-5.3,2.8-6.4,5.5c-1.4,3.3-0.6,7.4,2,10
			c1.1,1.2,2.5,1.9,4,2.5c-1.1,0.3-2.2,0.1-3.3,0.2c-3.7,0-7.5,0.6-10.5,2.7c-2.9,2.2-3.5,6.1-3.6,9.5c-0.2,2.4,1.6,4.4,3.4,5.8
			c3.9,2.7,8.6,4,13.2,5.2c-2.7,0.1-5.4,1.2-7.1,3.2c-2.8,2.9-3.2,7.6-1,11c0.9,1.5,2.3,2.5,3.7,3.5c-2.1-0.2-4.1-1-6.1-1.5
			c-6.7-2.1-13.3-5.3-18.2-10.5c-4.3-4.5-6.6-10.7-6.6-17c0.1-5,1.1-10,3.2-14.4C17,14.1,22,9.4,28,7z"/>
	</g>
	<g id="_x23_4c1b44ff_1_">
		<path class="st2" d="M47.6,4.2c1.8-0.1,3.5-0.2,5.3,0.2c2.9,1.1,5.3,3.4,6.1,6.4c0.4,1.6,0.3,3.1,0,4.7c-0.9,3.8-4.5,6.8-8.5,7
			c-1.2-0.1-2.3,0-3.5-0.3c-1.4-0.6-2.9-1.3-4-2.5c-2.6-2.5-3.3-6.6-2-10C42.3,7,44.8,4.9,47.6,4.2z"/>
	</g>
	<g id="_x23_d41e57ff_1_">
		<path class="st3" d="M52.9,4.4c4.5,0.4,8.8,1.8,12.9,3.2c2.5,0.9,4.9,2,7.3,3.1c1.8,0.9,3.6,1.6,5.2,2.8c2.4,1.9,3.7,5,3.5,8
			c-0.3,2.7-1.8,5.4-4.2,6.9c-3,2-7.2,2-10.3,0.1c-5.4-2.6-11.1-5.1-17.1-5.9l0.3,0c4-0.2,7.6-3.2,8.5-7c0.3-1.6,0.3-3.1,0-4.7
			C58.3,7.8,55.8,5.4,52.9,4.4z"/>
		<path class="st3" d="M217.6,12c1.7-2.8,4.9-4.7,8.2-4.5c2-0.1,3.9,0.8,5.5,1.8c3.3,2.4,4.7,7,3.1,10.7
			c-10.2,26.6-20.5,53.2-30.6,79.8l0-0.2c0.3-1.7,0.4-3.5-0.2-5.1c-2.9-8-5.9-16-8.8-24c7-18,13.9-36.1,20.9-54.2
			C216.4,14.9,216.9,13.4,217.6,12z"/>
		<path class="st3" d="M254.3,7.8c3.1-0.4,6.4,0.6,8.4,2.9c1.5,1.6,2.3,3.6,2.4,5.7c0,27.3,0,54.5,0,81.8c-0.1,4.7-4.5,8.8-9.2,8.7
			c-4.7,0.2-9.3-3.7-9.4-8.4c0-26.7,0-53.5,0-80.3c0-1.4-0.2-2.8,0.4-4.1C248,10.8,251,8.3,254.3,7.8z"/>
		<path class="st3" d="M487.2,48.1c15.8,0,31.6,0,47.3,0c0,6.1,0,12.3,0,18.4c-15.8,0.1-31.6,0-47.3,0
			C487.2,60.4,487.2,54.2,487.2,48.1z"/>
		<path class="st3" d="M438.9,81c2-2,4.8-3.1,7.6-2.8c3,0.2,5.9,2,7.4,4.5c1.2,1.9,1.4,4.2,1.1,6.4c-0.4,2-1.5,3.8-3.1,5.2
			c-8,7.4-18.6,12.1-29.5,13.3c-0.9,0-1.8-0.1-2.6,0c1.6-0.9,3.3-1.8,4.4-3.4c2.4-3,2.5-7.6,0.2-10.7c-1.2-1.8-3.1-3-5.1-3.7
			c0-0.1,0-0.3-0.1-0.4C426.5,88.8,433.5,85.9,438.9,81z"/>
	</g>
	<g id="_x23_2f7caeff_1_">
		<path class="st4" d="M410.1,6.1c1.4-0.1,2.7-0.4,4.1-0.3c-3,1-5.7,3.1-6.6,6.1c-1.2,3.3-0.2,7.2,2.3,9.6c1.2,1.2,2.9,1.9,4.4,2.5
			c-6.1,0.5-12,2.4-16.9,5.9c-3.6,2.5-6.6,5.7-9,9.3c-3.1,4.7-4.7,10.2-5.2,15.7c-0.6-2.5-2.1-4.8-4.4-6.1c-2.7-1.7-6.4-1.8-9.3-0.3
			c-2.6,1.3-4.5,3.8-4.9,6.6c0-6.2,1.6-12.3,3.9-18.1c4.3-10.2,12.1-18.8,21.7-24.4C396.3,9.2,403.1,6.9,410.1,6.1z"/>
		<path class="st4" d="M536.8,10.9c2.6-3.1,7.4-4.1,11.1-2.3c3.3,1.4,5.4,4.9,5.5,8.4c0,8.4,0,16.8,0,25.2c0,4.5,0.1,9-0.1,13.4
			c-0.8-2.7-2.4-5.3-5.1-6.5c-2.2-1.3-4.9-0.9-7.3-1c-2.1-0.1-4.3-0.2-6.4,0c0-10.5,0-21,0-31.4C534.6,14.5,535.4,12.5,536.8,10.9z"
			/>
		<path class="st4" d="M174.4,14.7c6.8,18.7,13.7,37.4,20.5,56.1c-3,7.7-6,15.5-9,23.2c-0.6,1.5-0.5,3.1-0.6,4.7
			c-1.6-3.9-2.9-7.8-4.4-11.7c-5.3-14.3-10.5-28.6-15.7-42.9c-0.3-0.8-0.6-1.6-1-2.3l0-0.1c2.6-5.5,4.9-11.1,7.4-16.7
			c0.8-1.8,1.6-3.5,2.3-5.4C174.7,18,174.6,16.3,174.4,14.7z"/>
		<path class="st4" d="M548.9,65.2c2.3-1.3,3.8-3.7,4.5-6.2c0.2,12.7,0,25.3,0.1,38c0.1,3.1-1.3,6.3-3.9,8.1
			c-3.6,2.7-9.1,2.2-12.3-1c-1.7-1.7-2.7-3.9-2.7-6.3c0-10.4,0-20.8,0-31.2c2.7,0,5.5,0,8.2,0C544.9,66.6,547.1,66.3,548.9,65.2z"/>
		<path class="st4" d="M86.5,75.9c0.2,0.2,0.2,0.4,0.2,0.7c0,5.1-1.1,10.1-3.4,14.6c-2.9,5.2-7.3,9.5-12.7,12.2
			c-4.1,2.2-8.8,3.4-13.5,4.1c-2.1,0.2-4.3,0.5-6.4,0.4c2.1-0.7,4.2-1.8,5.5-3.6c1.8-2.1,2.1-5.1,1.6-7.7c-0.9-3.9-4.7-7.1-8.8-7
			h0.2c4.6,0,9.6-0.4,13.5-2.9c1.7-1,3.1-2.5,4-4.3c0.5-1,0.7-2.2,1-3.3c0.4,1.6,1,3.2,2.1,4.5c2.6,3.2,7.4,4.2,11.1,2.5
			c2.8-1.2,4.9-3.8,5.4-6.8C86.6,78.2,86.4,77.1,86.5,75.9z"/>
	</g>
	<g id="_x23_1c5633ff_1_">
		<path class="st5" d="M414.2,5.8c1.6-0.2,3.1-0.2,4.7,0c1.9,0.7,3.7,1.6,5,3.2c2.4,2.8,2.7,7.2,0.9,10.3c-1.4,2.4-3.8,4-6.5,4.7
			c-1.3,0-2.6,0.1-3.9,0c-1.6-0.7-3.2-1.4-4.4-2.5c-2.5-2.4-3.6-6.3-2.3-9.6C408.5,8.9,411.2,6.7,414.2,5.8z"/>
		<path class="st5" d="M160.9,8.5c2.9-1.5,6.7-1.3,9.4,0.5c2.1,1.3,3.4,3.4,4.1,5.7c0.2,1.6,0.3,3.4-0.3,5c-0.7,1.8-1.6,3.6-2.3,5.4
			c-2.5,5.6-4.9,11.2-7.4,16.7c-2.7-7.2-5.3-14.4-8-21.7c-0.7-1.8-0.8-3.6-0.4-5.5C156.7,12,158.4,9.6,160.9,8.5z"/>
		<path class="st5" d="M73.9,69c3.4-1.3,7.6-0.4,10.1,2.2c0.9,0.9,1.5,2.1,2.1,3.1c0-0.2,0-0.6,0.1-0.7v-0.1c0,0.8,0.2,1.6,0.2,2.3
			c-0.2,1.2,0,2.3,0,3.5C86,82.3,83.8,85,81,86.1c-3.7,1.7-8.6,0.6-11.1-2.5c-1.1-1.3-1.7-2.9-2.1-4.5c-0.1-0.9-0.1-1.9,0-2.8
			C68.4,73.1,70.7,70.1,73.9,69z"/>
	</g>
	<g id="_x23_75b44cff_1_">
		<path class="st6" d="M418.9,5.8c3.2,0,6.3,0.5,9.4,1.2c8.4,1.8,16.2,5.9,22.6,11.4c1.4,1.3,2.9,2.5,3.7,4.3c1.4,3.1,1,7.1-1.4,9.7
			c-3,3.7-9.2,4.4-12.9,1.4c-1.4-1.2-2.7-2.4-4.2-3.5c-5.2-3.8-11.5-5.9-17.9-6.3c2.7-0.7,5.2-2.3,6.5-4.7c1.8-3.2,1.5-7.5-0.9-10.3
			C422.6,7.4,420.8,6.4,418.9,5.8z"/>
		<path class="st6" d="M468.4,16.4c0.2-4.7,4.6-8.8,9.4-8.6c4.8-0.1,9.2,3.9,9.3,8.6c0.1,10.6,0,21.1,0,31.7c-3.3,0-6.6,0-10,0
			c-2.6,0-5.1,1.4-6.7,3.3c-0.9,1-1.4,2.2-2,3.4c-0.2-3.4,0-6.8-0.1-10.3C468.4,35.1,468.4,25.8,468.4,16.4z"/>
		<path class="st6" d="M156,14.3l0,0.2c-0.4,1.8-0.3,3.7,0.4,5.5c2.7,7.2,5.3,14.5,8,21.7l0,0.1c-7.4,16.7-14.8,33.4-22.2,50.1
			c-1,2.3-1.9,4.6-3.1,6.8c-0.2-1.4-0.2-2.9-0.7-4.3c-2.1-5.7-4.2-11.5-6.3-17.3c-0.6-1.6-1.1-3.1-1.8-4.6l0-0.1
			c4.7-10.2,9.1-20.6,13.7-30.8C148,32.5,152,23.4,156,14.3z"/>
		<path class="st6" d="M310.1,26c6.2,0,12.5,0,18.8,0c-0.1,23.9,0,47.9,0,71.8c-0.1,4.3-3.5,8.2-7.8,8.7c-3,0.6-6.3-0.6-8.4-2.8
			c-1.7-1.8-2.7-4.3-2.5-6.8C310.1,73.3,310.2,49.6,310.1,26z"/>
		<path class="st6" d="M50.5,46.5c5.1,1,10,2.4,14.8,4.3c6.4,2.5,12.5,6.3,16.6,11.9c2.3,3.2,3.9,7,4.4,10.9c0,0.2,0,0.6-0.1,0.7
			c-0.6-1.1-1.3-2.2-2.1-3.1c-2.5-2.6-6.7-3.5-10.1-2.2c-3.2,1.2-5.5,4.1-6.1,7.3c-0.4-1-0.6-2-1.3-2.9c-1.9-2.5-4.7-4-7.5-5.2
			c-4.1-1.9-8.6-2.9-12.9-4c1.7-0.2,3.4-0.5,4.8-1.3c3.9-2.1,5.8-7.2,4.1-11.3C54.3,49.4,52.5,47.8,50.5,46.5z"/>
		<path class="st6" d="M468.5,59.3c0.8,2.7,2.5,5.1,5.2,6.3c1.8,0.9,3.7,1,5.7,1c2.6,0,5.2,0,7.8,0c0,9.1,0,18.2,0,27.2
			c-0.1,2.1,0.2,4.3-0.4,6.4c-0.8,3.1-3.5,5.5-6.6,6.3c-2.2,0.5-4.7,0.4-6.6-0.7c-3.1-1.5-5.2-4.9-5.1-8.3
			C468.5,84.8,468.3,72,468.5,59.3z"/>
	</g>
	<g id="_x23_696f13ff_1_">
		<path class="st7" d="M317.4,7.6c1.4-0.2,2.9-0.2,4.3,0c2.9,0.8,5.5,2.9,6.6,5.7c0.8,2,0.6,4.1,0.7,6.2c0,2.1,0,4.3,0,6.4
			c-6.2,0-12.5,0-18.8,0c0-3.2,0-6.4,0-9.6c0-2.3,1.1-4.5,2.6-6.1C313.9,9,315.6,8.2,317.4,7.6z"/>
		<path class="st7" d="M122.4,89.9c2.6-5.8,5.1-11.7,7.8-17.5c0.7,1.5,1.2,3.1,1.8,4.6c2.1,5.8,4.2,11.5,6.3,17.3
			c0.5,1.4,0.5,2.9,0.7,4.3v0.1c-0.7,1.8-1.3,3.7-2.7,5c-3.3,3.6-9.6,3.9-13.2,0.5c-1.6-1.4-2.5-3.3-3-5.2c-0.1-1.5-0.2-3,0.4-4.4
			C121,93,121.8,91.5,122.4,89.9z"/>
	</g>
	<g id="_x23_ec9b3aff_1_">
		<path class="st8" d="M90.5,16.4c0-4.7,4.3-8.9,9.1-8.9c3.9-0.2,7.8,2.4,9.1,6.1c6.2,16.8,12.3,33.6,18.5,50.5
			c1.1,2.7,2,5.6,3.1,8.3l0,0.1c-2.7,5.8-5.2,11.7-7.8,17.5c-0.7,1.6-1.4,3.1-2,4.7c-0.5,1.4-0.4,2.9-0.4,4.4
			c-9.4-25.4-18.6-50.8-27.9-76.2C91.4,20.7,90.3,18.7,90.5,16.4z"/>
		<path class="st8" d="M281,8.5c1.8-1,4-1,6-1c8,0,15.9,0,23.9,0c2.1,0.1,4.3-0.1,6.4,0.1c-1.7,0.6-3.4,1.3-4.7,2.6
			c-1.6,1.6-2.7,3.9-2.6,6.1c0,3.2,0,6.4,0,9.6c-7.8,0-15.6,0-23.4,0c-2.2,0-4.5-0.2-6.4-1.3c-2.7-1.5-4.5-4.4-4.7-7.5
			C275.4,13.6,277.6,9.9,281,8.5z"/>
		<path class="st8" d="M321.7,7.7c1.1-0.2,2.1-0.1,3.2-0.1c9.6,0,19.1,0,28.6,0c3.1,0,6.2,1.3,8,3.9c3.1,4,2,10.3-2.3,12.9
			c-2.1,1.5-4.9,1.7-7.5,1.7c-7.6,0-15.2,0-22.8,0c0.1-2.1,0-4.3,0-6.4c0-2.1,0.2-4.3-0.7-6.2C327.2,10.5,324.6,8.5,321.7,7.7z"/>
		<path class="st8" d="M364.6,58.4c0.6,3.6,3.7,6.7,7.4,7.4c2.1,0.4,4.3,0.2,6.2-0.8c2.6-1.3,4.4-3.8,5-6.6c0.5,5.3,2,10.6,4.8,15.2
			c3.2,5.1,7.6,9.4,13,12.1c4,2.1,8.5,3.3,13,3.7c0.5,0,1.1,0,1.6-0.2c0,0,0,0.1,0,0.2s0,0.2,0,0.2c-1.7-0.2-3.2,0.6-4.6,1.5
			c-3.1,2.1-4.7,6.1-3.7,9.7c0.8,3.2,3.4,6,6.6,6.8c1.9,0.2,3.8,0.2,5.7,0c0.9-0.1,1.8-0.1,2.6,0c-3.7,0.6-7.4,0.4-11,0.1
			c-11.7-1.1-23-6.3-31.3-14.5c-8-7.6-13.2-17.8-14.9-28.6C364.8,62.5,364.5,60.5,364.6,58.4z"/>
		<path class="st8" d="M7.8,88.2c-0.2-4.3,3.1-8.3,7.4-9.1c2.3-0.4,4.7-0.1,6.7,1c5.5,2.9,10.8,6.1,16.8,7.8c3.4,1,7,1.5,10.6,1.6
			h-0.2c-4.4-0.4-8.6,2.9-9.6,7.1c-0.4,2.4-0.2,5,1.3,7.1c1.2,1.9,3.2,3.2,5.3,3.9c-2.9,0.1-5.8-0.6-8.6-1.1c-7.8-1.6-15-5-21.9-8.9
			c-1.8-1-3.7-1.7-5.1-3.1C8.8,92.9,7.7,90.6,7.8,88.2z"/>
	</g>
	<g id="_x23_33863cff_1_">
		<path class="st9" d="M39.2,48.7c1.8-2,4.5-3.1,7.1-3.2c1.4,0.2,2.9,0.5,4.3,1c1.9,1.3,3.7,2.9,4.5,5.2c1.8,4.1-0.2,9.1-4.1,11.3
			c-1.5,0.8-3.1,1.2-4.8,1.3c-1.4-0.2-2.9-0.6-4.3-1c-1.4-0.9-2.8-2-3.7-3.5C36,56.4,36.4,51.6,39.2,48.7z"/>
	</g>
	<g id="_x23_314b29ff_1_">
		<path class="st10" d="M369.5,48.5c2.9-1.5,6.5-1.4,9.3,0.3c2.2,1.3,3.7,3.6,4.4,6.1c0,1.2,0,2.3,0,3.5c-0.6,2.8-2.4,5.3-5,6.6
			c-1.9,1-4.1,1.2-6.2,0.8c-3.7-0.7-6.7-3.8-7.4-7.4c-0.2-1.1-0.2-2.2,0-3.3C365.1,52.4,367,49.8,369.5,48.5z"/>
		<path class="st10" d="M39.6,96.7c0.9-4.2,5.1-7.5,9.6-7.1c4.1,0,8,3.1,8.8,7c0.5,2.6,0.2,5.5-1.6,7.7c-1.3,1.8-3.4,2.9-5.5,3.6
			c-1.6,0-3.1,0.2-4.7-0.2c-2.1-0.8-4.1-2-5.3-3.9C39.4,101.7,39.1,99.1,39.6,96.7z"/>
	</g>
	<g id="_x23_5d1818ff_1_">
		<path class="st11" d="M470.4,51.4c1.6-2,4.1-3.3,6.7-3.3c3.3,0,6.6,0,10,0h0.1c0,6.2,0,12.3,0,18.5H487c-2.6,0.1-5.2,0-7.8,0
			c-1.9,0-3.9-0.1-5.7-1c-2.6-1.2-4.4-3.7-5.2-6.3c-0.1-1.5-0.2-3,0-4.5C469.1,53.6,469.6,52.4,470.4,51.4z"/>
	</g>
	<g id="_x23_29123cff_1_">
		<path class="st12" d="M534.5,48.1c2.1-0.2,4.3-0.1,6.4,0c2.4,0.1,5.1-0.3,7.3,1c2.6,1.2,4.3,3.8,5.1,6.5c0.1,1.1,0.1,2.3,0,3.4
			c-0.7,2.5-2.1,4.9-4.5,6.2c-1.8,1.2-4,1.4-6.1,1.4c-2.7,0-5.5,0-8.2,0v-0.1C534.5,60.4,534.5,54.2,534.5,48.1z"/>
		<path class="st12" d="M194.9,70.7l0.1-0.2c2.9,8,5.9,16,8.8,24c0.5,1.7,0.5,3.4,0.2,5.1c-0.7,2.5-2.4,4.7-4.7,5.9
			c-2.7,1.5-6.3,1.4-9-0.1c-2.6-1.3-4.2-4-4.8-6.7c0.1-1.6,0-3.2,0.6-4.7C189,86.3,191.9,78.5,194.9,70.7z"/>
	</g>
	<g id="_x23_c5090cff_1_">
		<path class="st13" d="M415.6,89.5L415.6,89.5c1.2,0.1,2.4,0,3.5,0c0,0.1,0,0.3,0.1,0.4c2,0.7,3.9,1.9,5.1,3.7
			c2.2,3.1,2.1,7.7-0.2,10.7c-1.1,1.6-2.8,2.5-4.4,3.4c-1.9,0.2-3.8,0.2-5.7,0c-3.3-0.8-5.9-3.5-6.6-6.8c-1-3.6,0.6-7.6,3.7-9.7
			c1.4-0.9,2.9-1.6,4.6-1.5C415.6,89.6,415.6,89.5,415.6,89.5z"/>
	</g>
</g>
</svg>
